<svg width="164" height="38" viewBox="0 0 164 38" xmlns="http://www.w3.org/2000/svg" xmlns:sketch="http://www.bohemiancoding.com/sketch/ns"><path d="M17.758 37c-.188-.859-.32-1.602-.398-2.227-.078-.625-.117-1.258-.117-1.898-.938 1.328-2.187 2.43-3.75 3.305-1.563.875-3.32 1.313-5.273 1.313-2.469 0-4.387-.656-5.754-1.969-1.367-1.313-2.051-3.07-2.051-5.273 0-2.344 1.012-4.219 3.035-5.625 2.023-1.406 4.754-2.109 8.191-2.109h5.602v-3.141c0-1.813-.582-3.234-1.746-4.266-1.164-1.031-2.793-1.547-4.887-1.547-1.953 0-3.574.492-4.863 1.477-1.289.984-1.934 2.187-1.934 3.609l-2.578-.023-.047-.141c-.094-1.891.77-3.582 2.59-5.074 1.82-1.492 4.137-2.238 6.949-2.238 2.797 0 5.047.711 6.75 2.133 1.703 1.422 2.555 3.461 2.555 6.117v12.469c0 .891.051 1.758.152 2.602.102.844.27 1.68.504 2.508h-2.93zm-9.211-1.992c2.016 0 3.797-.473 5.344-1.418 1.547-.945 2.664-2.152 3.352-3.621v-5.297h-5.648c-2.547 0-4.582.543-6.105 1.629-1.523 1.086-2.285 2.434-2.285 4.043 0 1.375.473 2.496 1.418 3.363s2.254 1.301 3.926 1.301zm21.445-23.367l.258 4.43c.813-1.563 1.91-2.77 3.293-3.621 1.383-.852 3.02-1.277 4.91-1.277 2.75 0 4.844.84 6.281 2.52 1.438 1.68 2.156 4.301 2.156 7.863v15.445h-2.813v-15.422c0-2.906-.543-4.961-1.629-6.164-1.086-1.203-2.629-1.805-4.629-1.805-1.969 0-3.574.52-4.816 1.559s-2.137 2.418-2.684 4.137v17.695h-2.813v-25.359h2.484zm23.133 12.891c0-4.047.855-7.285 2.566-9.715 1.711-2.43 4.098-3.645 7.16-3.645 1.766 0 3.297.375 4.594 1.125 1.297.75 2.375 1.812 3.234 3.188v-15.047h2.789v36.563h-2.484l-.234-3.68c-.844 1.344-1.93 2.375-3.258 3.094-1.328.719-2.891 1.078-4.688 1.078-3.031 0-5.402-1.129-7.113-3.387-1.711-2.258-2.566-5.285-2.566-9.082v-.492zm2.813.492c0 3.063.613 5.5 1.84 7.313 1.227 1.813 3.074 2.719 5.543 2.719 1.813 0 3.324-.406 4.535-1.219 1.211-.813 2.152-1.937 2.824-3.375v-11.906c-.641-1.469-1.547-2.66-2.719-3.574-1.172-.914-2.703-1.371-4.594-1.371-2.469 0-4.324 1.012-5.566 3.035s-1.863 4.652-1.863 7.887v.492zm36.68-10.969l-2.086-.141c-1.766 0-3.215.496-4.348 1.488s-1.941 2.355-2.426 4.09v17.508h-2.813v-25.359h2.461l.352 4.219v.281c.734-1.563 1.719-2.781 2.953-3.656 1.234-.875 2.703-1.313 4.406-1.313.359 0 .707.027 1.043.082.336.055.613.113.832.176l-.375 2.625zm7.805 22.945h-2.789v-25.359h2.789v25.359zm0-32.625h-2.789v-3.938h2.789v3.938zm33.445 18.352c0 4.406-1.207 7.969-3.621 10.688-2.414 2.719-5.652 4.078-9.715 4.078-4 0-7.191-1.359-9.574-4.078-2.383-2.719-3.574-6.281-3.574-10.688v-5.555c0-4.391 1.187-7.953 3.563-10.688 2.375-2.734 5.562-4.102 9.563-4.102 4.063 0 7.305 1.367 9.727 4.102 2.422 2.734 3.633 6.297 3.633 10.688v5.555zm-2.789-5.602c0-3.688-.934-6.656-2.801-8.906-1.867-2.25-4.457-3.375-7.77-3.375-3.25 0-5.781 1.125-7.594 3.375-1.813 2.25-2.719 5.219-2.719 8.906v5.602c0 3.719.91 6.703 2.73 8.953 1.82 2.25 4.355 3.375 7.605 3.375 3.328 0 5.918-1.121 7.77-3.363 1.852-2.242 2.777-5.23 2.777-8.965v-5.602zm29.695 11.508c0-1.859-.695-3.379-2.086-4.559-1.391-1.18-3.812-2.223-7.266-3.129-3.734-.938-6.562-2.156-8.484-3.656-1.922-1.5-2.883-3.523-2.883-6.07 0-2.609 1.074-4.734 3.223-6.375 2.148-1.641 4.91-2.461 8.285-2.461 3.516 0 6.352.977 8.508 2.93 2.156 1.953 3.203 4.336 3.141 7.148l-.07.141h-2.578c0-2.281-.809-4.156-2.426-5.625-1.617-1.469-3.809-2.203-6.574-2.203-2.734 0-4.871.609-6.41 1.828-1.539 1.219-2.309 2.734-2.309 4.547 0 1.719.711 3.152 2.133 4.301 1.422 1.148 3.875 2.16 7.359 3.035 3.672.938 6.465 2.203 8.379 3.797 1.914 1.594 2.871 3.695 2.871 6.305 0 2.719-1.113 4.883-3.34 6.492s-5.066 2.414-8.52 2.414c-3.406 0-6.379-.855-8.918-2.566-2.539-1.711-3.77-4.207-3.691-7.488l.047-.141h2.578c0 2.656.992 4.625 2.977 5.906 1.984 1.281 4.32 1.922 7.008 1.922 2.703 0 4.887-.594 6.551-1.781 1.664-1.188 2.496-2.758 2.496-4.711z" sketch:type="MSShapeGroup" fill="#D4504A"/></svg>