<svg width="153" height="38" viewBox="0 0 153 38" xmlns="http://www.w3.org/2000/svg" xmlns:sketch="http://www.bohemiancoding.com/sketch/ns"><path d="M17.758 37c-.188-.859-.32-1.602-.398-2.227-.078-.625-.117-1.258-.117-1.898-.938 1.328-2.187 2.43-3.75 3.305-1.563.875-3.32 1.313-5.273 1.313-2.469 0-4.387-.656-5.754-1.969-1.367-1.313-2.051-3.07-2.051-5.273 0-2.344 1.012-4.219 3.035-5.625 2.023-1.406 4.754-2.109 8.191-2.109h5.602v-3.141c0-1.813-.582-3.234-1.746-4.266-1.164-1.031-2.793-1.547-4.887-1.547-1.953 0-3.574.492-4.863 1.477-1.289.984-1.934 2.187-1.934 3.609l-2.578-.023-.047-.141c-.094-1.891.77-3.582 2.59-5.074 1.82-1.492 4.137-2.238 6.949-2.238 2.797 0 5.047.711 6.75 2.133 1.703 1.422 2.555 3.461 2.555 6.117v12.469c0 .891.051 1.758.152 2.602.102.844.27 1.68.504 2.508h-2.93zm-9.211-1.992c2.016 0 3.797-.473 5.344-1.418 1.547-.945 2.664-2.152 3.352-3.621v-5.297h-5.648c-2.547 0-4.582.543-6.105 1.629-1.523 1.086-2.285 2.434-2.285 4.043 0 1.375.473 2.496 1.418 3.363s2.254 1.301 3.926 1.301zm21.445-23.367l.258 4.43c.813-1.563 1.91-2.77 3.293-3.621 1.383-.852 3.02-1.277 4.91-1.277 2.75 0 4.844.84 6.281 2.52 1.438 1.68 2.156 4.301 2.156 7.863v15.445h-2.813v-15.422c0-2.906-.543-4.961-1.629-6.164-1.086-1.203-2.629-1.805-4.629-1.805-1.969 0-3.574.52-4.816 1.559s-2.137 2.418-2.684 4.137v17.695h-2.813v-25.359h2.484zm23.133 12.891c0-4.047.855-7.285 2.566-9.715 1.711-2.43 4.098-3.645 7.16-3.645 1.766 0 3.297.375 4.594 1.125 1.297.75 2.375 1.812 3.234 3.188v-15.047h2.789v36.563h-2.484l-.234-3.68c-.844 1.344-1.93 2.375-3.258 3.094-1.328.719-2.891 1.078-4.688 1.078-3.031 0-5.402-1.129-7.113-3.387-1.711-2.258-2.566-5.285-2.566-9.082v-.492zm2.813.492c0 3.063.613 5.5 1.84 7.313 1.227 1.813 3.074 2.719 5.543 2.719 1.813 0 3.324-.406 4.535-1.219 1.211-.813 2.152-1.937 2.824-3.375v-11.906c-.641-1.469-1.547-2.66-2.719-3.574-1.172-.914-2.703-1.371-4.594-1.371-2.469 0-4.324 1.012-5.566 3.035s-1.863 4.652-1.863 7.887v.492zm36.68-10.969l-2.086-.141c-1.766 0-3.215.496-4.348 1.488s-1.941 2.355-2.426 4.09v17.508h-2.813v-25.359h2.461l.352 4.219v.281c.734-1.563 1.719-2.781 2.953-3.656 1.234-.875 2.703-1.313 4.406-1.313.359 0 .707.027 1.043.082.336.055.613.113.832.176l-.375 2.625zm7.805 22.945h-2.789v-25.359h2.789v25.359zm0-32.625h-2.789v-3.938h2.789v3.938zm6.188 19.57c0-3.734 1.023-6.797 3.07-9.188 2.047-2.391 4.758-3.586 8.133-3.586 3.391 0 6.109 1.195 8.156 3.586 2.047 2.391 3.07 5.453 3.07 9.188v.773c0 3.75-1.02 6.816-3.059 9.199s-4.746 3.574-8.121 3.574c-3.406 0-6.133-1.191-8.18-3.574-2.047-2.383-3.07-5.449-3.07-9.199v-.773zm2.813.773c0 2.938.742 5.406 2.227 7.406 1.484 2 3.555 3 6.211 3 2.609 0 4.66-1 6.152-3s2.238-4.469 2.238-7.406v-.773c0-2.891-.75-5.344-2.25-7.359-1.5-2.016-3.562-3.023-6.188-3.023-2.625 0-4.68 1.008-6.164 3.023-1.484 2.016-2.227 4.469-2.227 7.359v.773zm40.664 5.836c0-1.188-.488-2.227-1.465-3.117-.977-.891-2.738-1.617-5.285-2.18-3.031-.656-5.27-1.523-6.715-2.602-1.445-1.078-2.168-2.602-2.168-4.57 0-1.938.816-3.574 2.449-4.91 1.633-1.336 3.793-2.004 6.48-2.004 2.859 0 5.125.707 6.797 2.121 1.672 1.414 2.469 3.184 2.391 5.309l-.047.141h-2.602c0-1.391-.59-2.602-1.77-3.633-1.18-1.031-2.77-1.547-4.77-1.547-2.047 0-3.582.441-4.605 1.324-1.023.883-1.535 1.918-1.535 3.105 0 1.172.441 2.141 1.324 2.906.883.766 2.645 1.437 5.285 2.016 3.016.672 5.273 1.59 6.773 2.754s2.25 2.746 2.25 4.746c0 2.109-.855 3.816-2.566 5.121-1.711 1.305-3.973 1.957-6.785 1.957-3.078 0-5.496-.734-7.254-2.203-1.758-1.469-2.59-3.219-2.496-5.25l.047-.141h2.578c.109 1.828.855 3.156 2.238 3.984 1.383.828 3.012 1.242 4.887 1.242 2.031 0 3.633-.445 4.805-1.336 1.172-.891 1.758-1.969 1.758-3.234z" fill="#D4504A"/></svg>