<svg width="478" height="389" viewBox="0 0 478 389" xmlns="http://www.w3.org/2000/svg" xmlns:sketch="http://www.bohemiancoding.com/sketch/ns"><path d="M229.667 300h-141.148c-49.57 0-88.519-38.824-88.519-88.235 0-37.059 21.244-67.059 53.111-81.176v-7.059c0-68.824 54.881-123.529 123.926-123.529 46.03 0 86.748 24.706 107.993 63.529 12.393-7.059 26.556-10.588 42.489-10.588 46.03 0 86.748 33.529 95.6 77.647 31.867 12.353 54.881 44.118 54.881 81.176 0 49.412-38.948 88.235-88.519 88.235h-142.148v89h-17.667v-89zm0 0h17.667v-105.615l56.533 56.615 14.133-12.385-79.5-79.615-79.5 79.615 14.133 12.385 56.533-56.615v105.615z" fill="#eee"/></svg>